<svg xmlns="http://www.w3.org/2000/svg" xmlns:xlink="http://www.w3.org/1999/xlink" viewBox="0 0 1920 434.12"><defs><style>.cls-1{fill:url(#Безымянный_градиент_13);}.cls-2{fill:#f20c0c;}.cls-3{font-size:201px;font-family:MicrosoftNewTaiLue-Bold, Microsoft New Tai Lue;font-weight:700;}.cls-4{fill:url(#Безымянный_градиент_68);}.cls-5{fill:url(#Безымянный_градиент_68-2);}.cls-6{fill:url(#Безымянный_градиент_68-3);}.cls-7{fill:url(#Безымянный_градиент_68-4);}.cls-8{fill:url(#Безымянный_градиент_68-5);}.cls-9{fill:url(#Безымянный_градиент_68-6);}.cls-10{fill:url(#Безымянный_градиент_68-7);}.cls-11{fill:url(#Безымянный_градиент_68-8);}.cls-12{fill:url(#Безымянный_градиент_68-9);}.cls-13{fill:url(#Безымянный_градиент_68-10);}.cls-14{fill:url(#Безымянный_градиент_68-11);}.cls-15{fill:url(#Безымянный_градиент_68-12);}.cls-16{fill:url(#Безымянный_градиент_68-13);}.cls-17{fill:url(#Безымянный_градиент_68-14);}.cls-18{fill:url(#Безымянный_градиент_68-15);}.cls-19{fill:url(#Безымянный_градиент_68-16);}.cls-20{fill:url(#Безымянный_градиент_68-17);}.cls-21{fill:url(#Безымянный_градиент_68-18);}.cls-22{fill:url(#Безымянный_градиент_68-19);}.cls-23{fill:url(#Безымянный_градиент_68-20);}.cls-24{fill:url(#Безымянный_градиент_68-21);}.cls-25{fill:url(#Безымянный_градиент_68-22);}.cls-26{fill:url(#Безымянный_градиент_68-23);}.cls-27{fill:url(#Безымянный_градиент_68-24);}.cls-28{fill:url(#Безымянный_градиент_68-25);}.cls-29{fill:url(#Безымянный_градиент_68-26);}.cls-30{fill:url(#Безымянный_градиент_68-27);}.cls-31{fill:url(#Безымянный_градиент_68-28);}.cls-32{fill:url(#Безымянный_градиент_68-29);}.cls-33{fill:url(#Безымянный_градиент_68-30);}.cls-34{fill:url(#Безымянный_градиент_68-31);}.cls-35{fill:url(#Безымянный_градиент_68-32);}.cls-36{fill:url(#Безымянный_градиент_68-33);}.cls-37{fill:url(#Безымянный_градиент_68-34);}.cls-38{fill:url(#Безымянный_градиент_68-35);}.cls-39{fill:url(#Безымянный_градиент_68-36);}.cls-40{fill:url(#Безымянный_градиент_68-37);}.cls-41{fill:url(#Безымянный_градиент_68-38);}.cls-42{fill:url(#Безымянный_градиент_68-39);}.cls-43{fill:url(#Безымянный_градиент_68-40);}.cls-44{fill:url(#Безымянный_градиент_68-41);}.cls-45{fill:url(#Безымянный_градиент_68-42);}.cls-46{fill:url(#Безымянный_градиент_68-43);}.cls-47{fill:url(#Безымянный_градиент_68-44);}.cls-48{fill:url(#Безымянный_градиент_68-45);}.cls-49{fill:url(#Безымянный_градиент_68-46);}.cls-50{fill:url(#Безымянный_градиент_68-47);}.cls-51{fill:url(#Безымянный_градиент_71);}.cls-52{fill:url(#Безымянный_градиент_71-2);}.cls-53{fill:url(#Безымянный_градиент_71-3);}.cls-54{fill:url(#Безымянный_градиент_71-4);}.cls-55{fill:url(#Безымянный_градиент_71-5);}.cls-56{fill:url(#Безымянный_градиент_71-6);}.cls-57{fill:url(#Безымянный_градиент_71-7);}.cls-58{fill:url(#Безымянный_градиент_71-8);}.cls-59{fill:url(#Безымянный_градиент_71-9);}.cls-60{fill:url(#Безымянный_градиент_71-10);}.cls-61{fill:url(#Безымянный_градиент_71-11);}.cls-62{fill:url(#Безымянный_градиент_72);}.cls-63{fill:url(#Безымянный_градиент_71-12);}.cls-64{fill:url(#Безымянный_градиент_71-13);}.cls-65{fill:url(#Безымянный_градиент_71-14);}.cls-66{fill:url(#Безымянный_градиент_71-15);}.cls-67{fill:url(#Безымянный_градиент_71-16);}.cls-68{fill:url(#Безымянный_градиент_71-17);}.cls-69{fill:url(#Безымянный_градиент_71-18);}.cls-70{fill:url(#Безымянный_градиент_71-19);}.cls-71{fill:url(#Безымянный_градиент_56);}.cls-72{fill:url(#Безымянный_градиент_53);}.cls-73{fill:url(#Безымянный_градиент_48);}.cls-74{fill:url(#Безымянный_градиент_48-2);}.cls-75{fill:url(#Безымянный_градиент_48-3);}.cls-76{fill:url(#Безымянный_градиент_48-4);}.cls-77{fill:url(#Безымянный_градиент_48-5);}.cls-78{fill:url(#Безымянный_градиент_48-6);}.cls-79{fill:url(#Безымянный_градиент_48-7);}.cls-80{fill:url(#Безымянный_градиент_48-8);}.cls-81{fill:#f4eaea;}.cls-82{fill:url(#Безымянный_градиент_68-48);}.cls-83{fill:url(#Безымянный_градиент_68-49);}.cls-84{fill:url(#Безымянный_градиент_68-50);}.cls-85{fill:url(#Безымянный_градиент_68-51);}.cls-86{fill:url(#Безымянный_градиент_68-52);}.cls-87{fill:url(#Безымянный_градиент_68-53);}.cls-88{fill:url(#Безымянный_градиент_68-54);}.cls-89{fill:url(#Безымянный_градиент_68-55);}.cls-90{fill:url(#Безымянный_градиент_68-56);}.cls-91{fill:url(#Безымянный_градиент_71-20);}.cls-92{fill:#f90606;}.cls-93{font-size:150px;fill:#fff;font-family:BernardMT-Condensed, Bernard MT Condensed;}</style><linearGradient id="Безымянный_градиент_13" x1="953.3" y1="751.64" x2="962.51" y2="-6.76" gradientUnits="userSpaceOnUse"><stop offset="0.45" stop-color="#ff0"/><stop offset="0.88" stop-color="blue"/></linearGradient><linearGradient id="Безымянный_градиент_68" x1="149.43" y1="336.38" x2="187.81" y2="314.22" gradientUnits="userSpaceOnUse"><stop offset="0.23" stop-color="#a72900"/><stop offset="0.56" stop-color="red"/></linearGradient><linearGradient id="Безымянный_градиент_68-2" x1="887.43" y1="310.38" x2="925.81" y2="288.22" xlink:href="#Безымянный_градиент_68"/><linearGradient id="Безымянный_градиент_68-3" x1="1811.43" y1="363.38" x2="1849.81" y2="341.22" xlink:href="#Безымянный_градиент_68"/><linearGradient id="Безымянный_градиент_68-4" x1="1254.43" y1="327.38" x2="1292.81" y2="305.22" xlink:href="#Безымянный_градиент_68"/><linearGradient id="Безымянный_градиент_68-5" x1="1433.47" y1="334.08" x2="1460.36" y2="318.56" xlink:href="#Безымянный_градиент_68"/><linearGradient id="Безымянный_градиент_68-6" x1="1527.47" y1="375.08" x2="1554.36" y2="359.56" xlink:href="#Безымянный_градиент_68"/><linearGradient id="Безымянный_градиент_68-7" x1="980.95" y1="268.52" x2="1009.18" y2="252.22" xlink:href="#Безымянный_градиент_68"/><linearGradient id="Безымянный_градиент_68-8" x1="1763.57" y1="298.72" x2="1774.45" y2="292.44" xlink:href="#Безымянный_градиент_68"/><linearGradient id="Безымянный_градиент_68-9" x1="1079.57" y1="362.72" x2="1090.45" y2="356.44" xlink:href="#Безымянный_градиент_68"/><linearGradient id="Безымянный_градиент_68-10" x1="1759.57" y1="372.72" x2="1770.45" y2="366.44" xlink:href="#Безымянный_градиент_68"/><linearGradient id="Безымянный_градиент_68-11" x1="1213.57" y1="307.72" x2="1224.45" y2="301.44" xlink:href="#Безымянный_градиент_68"/><linearGradient id="Безымянный_градиент_68-12" x1="366.57" y1="352.72" x2="377.45" y2="346.44" xlink:href="#Безымянный_градиент_68"/><linearGradient id="Безымянный_градиент_68-13" x1="237.57" y1="379.72" x2="248.45" y2="373.44" xlink:href="#Безымянный_градиент_68"/><linearGradient id="Безымянный_градиент_68-14" x1="704.57" y1="298.72" x2="715.45" y2="292.44" xlink:href="#Безымянный_градиент_68"/><linearGradient id="Безымянный_градиент_68-15" x1="749.57" y1="368.72" x2="760.45" y2="362.44" xlink:href="#Безымянный_градиент_68"/><linearGradient id="Безымянный_градиент_68-16" x1="618.57" y1="362.72" x2="629.45" y2="356.44" xlink:href="#Безымянный_градиент_68"/><linearGradient id="Безымянный_градиент_68-17" x1="1810.57" y1="278.72" x2="1821.45" y2="272.44" xlink:href="#Безымянный_градиент_68"/><linearGradient id="Безымянный_градиент_68-18" x1="823.47" y1="360.08" x2="850.36" y2="344.56" xlink:href="#Безымянный_градиент_68"/><linearGradient id="Безымянный_градиент_68-19" x1="122.47" y1="268.08" x2="149.36" y2="252.56" xlink:href="#Безымянный_градиент_68"/><linearGradient id="Безымянный_градиент_68-20" x1="1693.47" y1="360.08" x2="1720.36" y2="344.56" xlink:href="#Безымянный_градиент_68"/><linearGradient id="Безымянный_градиент_68-21" x1="671.47" y1="349.08" x2="698.36" y2="333.56" xlink:href="#Безымянный_градиент_68"/><linearGradient id="Безымянный_градиент_68-22" x1="301.47" y1="375.08" x2="328.36" y2="359.56" xlink:href="#Безымянный_градиент_68"/><linearGradient id="Безымянный_градиент_68-23" x1="562.47" y1="328.08" x2="589.36" y2="312.56" xlink:href="#Безымянный_градиент_68"/><linearGradient id="Безымянный_градиент_68-24" x1="1216.47" y1="369.08" x2="1243.36" y2="353.56" xlink:href="#Безымянный_градиент_68"/><linearGradient id="Безымянный_градиент_68-25" x1="402.47" y1="338.08" x2="429.36" y2="322.56" xlink:href="#Безымянный_градиент_68"/><linearGradient id="Безымянный_градиент_68-26" x1="457.47" y1="317.08" x2="484.36" y2="301.56" xlink:href="#Безымянный_градиент_68"/><linearGradient id="Безымянный_градиент_68-27" x1="482.47" y1="379.08" x2="509.36" y2="363.56" xlink:href="#Безымянный_градиент_68"/><linearGradient id="Безымянный_градиент_68-28" x1="259.47" y1="319.08" x2="286.36" y2="303.56" xlink:href="#Безымянный_градиент_68"/><linearGradient id="Безымянный_градиент_68-29" x1="317.7" y1="261.4" x2="340.59" y2="248.18" gradientTransform="translate(-20.72 12.9) rotate(-2.82)" xlink:href="#Безымянный_градиент_68"/><linearGradient id="Безымянный_градиент_68-30" x1="357.18" y1="275.65" x2="371.11" y2="267.6" xlink:href="#Безымянный_градиент_68"/><linearGradient id="Безымянный_градиент_68-31" x1="626.18" y1="309.65" x2="640.11" y2="301.6" xlink:href="#Безымянный_градиент_68"/><linearGradient id="Безымянный_градиент_68-32" x1="1004.48" y1="349.26" x2="1020.79" y2="339.84" xlink:href="#Безымянный_градиент_68"/><linearGradient id="Безымянный_градиент_68-33" x1="115.48" y1="375.26" x2="131.79" y2="365.84" xlink:href="#Безымянный_градиент_68"/><linearGradient id="Безымянный_градиент_68-34" x1="1160.48" y1="170.26" x2="1176.79" y2="160.84" xlink:href="#Безымянный_градиент_68"/><linearGradient id="Безымянный_градиент_68-35" x1="1136.48" y1="339.26" x2="1152.79" y2="329.84" xlink:href="#Безымянный_градиент_68"/><linearGradient id="Безымянный_градиент_68-36" x1="1609.48" y1="359.26" x2="1625.79" y2="349.84" xlink:href="#Безымянный_градиент_68"/><linearGradient id="Безымянный_градиент_68-37" x1="1331.48" y1="365.26" x2="1347.79" y2="355.84" xlink:href="#Безымянный_градиент_68"/><linearGradient id="Безымянный_градиент_68-38" x1="1686.48" y1="300.26" x2="1702.79" y2="290.84" xlink:href="#Безымянный_градиент_68"/><linearGradient id="Безымянный_градиент_68-39" x1="1520.48" y1="284.26" x2="1536.79" y2="274.84" xlink:href="#Безымянный_градиент_68"/><linearGradient id="Безымянный_градиент_68-40" x1="1116.48" y1="126.26" x2="1132.79" y2="116.84" xlink:href="#Безымянный_градиент_68"/><linearGradient id="Безымянный_градиент_68-41" x1="752.47" y1="323.08" x2="779.36" y2="307.56" xlink:href="#Безымянный_градиент_68"/><linearGradient id="Безымянный_градиент_68-42" x1="699.52" y1="207.74" x2="718.44" y2="196.81" xlink:href="#Безымянный_градиент_68"/><linearGradient id="Безымянный_градиент_68-43" x1="823.52" y1="292.74" x2="842.44" y2="281.81" xlink:href="#Безымянный_градиент_68"/><linearGradient id="Безымянный_градиент_68-44" x1="909.52" y1="371.74" x2="928.44" y2="360.81" xlink:href="#Безымянный_градиент_68"/><linearGradient id="Безымянный_градиент_68-45" x1="231.52" y1="277.74" x2="250.44" y2="266.81" xlink:href="#Безымянный_градиент_68"/><linearGradient id="Безымянный_градиент_68-46" x1="1074.52" y1="316.74" x2="1093.44" y2="305.81" xlink:href="#Безымянный_градиент_68"/><linearGradient id="Безымянный_градиент_68-47" x1="572.52" y1="132.74" x2="591.44" y2="121.81" xlink:href="#Безымянный_градиент_68"/><linearGradient id="Безымянный_градиент_71" x1="516.31" y1="262" x2="552.4" y2="241.17" gradientUnits="userSpaceOnUse"><stop offset="0.12" stop-color="#550004"/><stop offset="0.46" stop-color="red"/></linearGradient><linearGradient id="Безымянный_градиент_71-2" x1="424.31" y1="171" x2="460.4" y2="150.17" xlink:href="#Безымянный_градиент_71"/><linearGradient id="Безымянный_градиент_71-3" x1="1223.31" y1="172" x2="1259.4" y2="151.17" xlink:href="#Безымянный_градиент_71"/><linearGradient id="Безымянный_градиент_71-4" x1="1369.3" y1="231.59" x2="1392.98" y2="217.91" gradientTransform="translate(49.95 -210.69) rotate(8.89)" xlink:href="#Безымянный_градиент_71"/><linearGradient id="Безымянный_градиент_71-5" x1="197.67" y1="370.33" x2="221.35" y2="356.66" gradientTransform="translate(49.95 -210.69) rotate(8.89)" xlink:href="#Безымянный_градиент_71"/><linearGradient id="Безымянный_градиент_71-6" x1="1585.31" y1="241" x2="1621.4" y2="220.17" xlink:href="#Безымянный_градиент_71"/><linearGradient id="Безымянный_градиент_71-7" x1="1662.31" y1="138" x2="1698.4" y2="117.17" xlink:href="#Безымянный_градиент_71"/><linearGradient id="Безымянный_градиент_71-8" x1="658.74" y1="-171.28" x2="670.52" y2="-178.08" gradientTransform="matrix(1.51, -0.2, 0.22, 1.65, -346.3, 657.02)" xlink:href="#Безымянный_градиент_71"/><linearGradient id="Безымянный_градиент_71-9" x1="554.32" y1="-267.01" x2="565.68" y2="-273.57" gradientTransform="matrix(1.51, -0.2, 0.22, 1.65, -346.3, 657.02)" xlink:href="#Безымянный_градиент_71"/><linearGradient id="Безымянный_градиент_71-10" x1="1201.27" y1="-200.74" x2="1214.47" y2="-208.36" gradientTransform="matrix(1.22, -0.91, 1, 1.33, 160.96, 1477.17)" xlink:href="#Безымянный_градиент_71"/><linearGradient id="Безымянный_градиент_71-11" x1="1103.26" y1="-271.56" x2="1116.18" y2="-279.02" gradientTransform="matrix(1.52, 0.11, -0.12, 1.66, -488.07, 440.64)" xlink:href="#Безымянный_градиент_71"/><linearGradient id="Безымянный_градиент_72" x1="766.85" y1="-249.38" x2="779.78" y2="-256.84" gradientTransform="matrix(-1.52, 0.11, 0.12, 1.66, 2938.91, 440.64)" gradientUnits="userSpaceOnUse"><stop offset="0.54" stop-color="red"/><stop offset="0.88" stop-color="#550004"/></linearGradient><linearGradient id="Безымянный_градиент_71-12" x1="827.86" y1="-184.98" x2="840.78" y2="-192.44" gradientTransform="matrix(1.52, -0.04, 0.04, 1.66, 565.08, 563.07)" xlink:href="#Безымянный_градиент_71"/><linearGradient id="Безымянный_градиент_71-13" x1="1099.07" y1="-281.8" x2="1110.7" y2="-288.51" gradientTransform="matrix(1.52, 0.11, -0.12, 1.66, -488.07, 440.64)" xlink:href="#Безымянный_градиент_71"/><linearGradient id="Безымянный_градиент_71-14" x1="659.89" y1="-239.52" x2="671.67" y2="-246.32" gradientTransform="matrix(1.51, -0.2, 0.22, 1.65, -346.41, 656.68)" xlink:href="#Безымянный_градиент_71"/><linearGradient id="Безымянный_градиент_71-15" x1="326.32" y1="129.72" x2="354.07" y2="113.7" xlink:href="#Безымянный_градиент_71"/><linearGradient id="Безымянный_градиент_71-16" x1="1457.32" y1="199.72" x2="1485.07" y2="183.7" xlink:href="#Безымянный_градиент_71"/><linearGradient id="Безымянный_градиент_71-17" x1="1739.32" y1="151.72" x2="1767.07" y2="135.7" xlink:href="#Безымянный_градиент_71"/><linearGradient id="Безымянный_градиент_71-18" x1="1064.32" y1="248.72" x2="1092.07" y2="232.7" xlink:href="#Безымянный_градиент_71"/><linearGradient id="Безымянный_градиент_71-19" x1="1325.32" y1="168.72" x2="1353.07" y2="152.7" xlink:href="#Безымянный_градиент_71"/><linearGradient id="Безымянный_градиент_56" x1="1024.63" y1="134.45" x2="1062.79" y2="112.42" gradientUnits="userSpaceOnUse"><stop offset="0.12" stop-color="#3f0005"/><stop offset="0.44" stop-color="red"/></linearGradient><linearGradient id="Безымянный_градиент_53" x1="862.6" y1="137.51" x2="899.56" y2="116.17" gradientUnits="userSpaceOnUse"><stop offset="0.12" stop-color="#6a0017"/><stop offset="0.48" stop-color="red"/></linearGradient><linearGradient id="Безымянный_градиент_48" x1="673" y1="131.78" x2="701.88" y2="115.1" gradientUnits="userSpaceOnUse"><stop offset="0.12" stop-color="#3f000a"/><stop offset="0.48" stop-color="red"/></linearGradient><linearGradient id="Безымянный_градиент_48-2" x1="127.17" y1="139.38" x2="167.73" y2="115.97" xlink:href="#Безымянный_градиент_48"/><linearGradient id="Безымянный_градиент_48-3" x1="482.26" y1="190.47" x2="513.2" y2="172.61" xlink:href="#Безымянный_градиент_48"/><linearGradient id="Безымянный_градиент_48-4" x1="739.26" y1="160.47" x2="770.2" y2="142.61" xlink:href="#Безымянный_градиент_48"/><linearGradient id="Безымянный_градиент_48-5" x1="948.26" y1="131.47" x2="979.2" y2="113.61" xlink:href="#Безымянный_градиент_48"/><linearGradient id="Безымянный_градиент_48-6" x1="1492.17" y1="138.38" x2="1532.73" y2="114.97" xlink:href="#Безымянный_градиент_48"/><linearGradient id="Безымянный_градиент_48-7" x1="1125.17" y1="252.38" x2="1165.73" y2="228.97" xlink:href="#Безымянный_градиент_48"/><linearGradient id="Безымянный_градиент_48-8" x1="1564.54" y1="187.19" x2="1588.02" y2="173.63" xlink:href="#Безымянный_градиент_48"/><linearGradient id="Безымянный_градиент_68-48" x1="1353.52" y1="304.74" x2="1372.44" y2="293.81" xlink:href="#Безымянный_градиент_68"/><linearGradient id="Безымянный_градиент_68-49" x1="1574.52" y1="318.74" x2="1593.44" y2="307.81" xlink:href="#Безымянный_градиент_68"/><linearGradient id="Безымянный_градиент_68-50" x1="1397.52" y1="373.74" x2="1416.44" y2="362.81" xlink:href="#Безымянный_градиент_68"/><linearGradient id="Безымянный_градиент_68-51" x1="1426.52" y1="247.74" x2="1445.44" y2="236.81" xlink:href="#Безымянный_градиент_68"/><linearGradient id="Безымянный_градиент_68-52" x1="1629.52" y1="216.74" x2="1648.44" y2="205.81" xlink:href="#Безымянный_градиент_68"/><linearGradient id="Безымянный_градиент_68-53" x1="1711.52" y1="247.74" x2="1730.44" y2="236.81" xlink:href="#Безымянный_градиент_68"/><linearGradient id="Безымянный_градиент_68-54" x1="972.52" y1="201.74" x2="991.44" y2="190.81" xlink:href="#Безымянный_градиент_68"/><linearGradient id="Безымянный_градиент_68-55" x1="807.52" y1="163.74" x2="826.44" y2="152.81" xlink:href="#Безымянный_градиент_68"/><linearGradient id="Безымянный_градиент_68-56" x1="168.52" y1="113.74" x2="187.44" y2="102.81" xlink:href="#Безымянный_градиент_68"/><linearGradient id="Безымянный_градиент_71-20" x1="472.37" y1="-230.57" x2="485.29" y2="-238.03" gradientTransform="matrix(1.52, 0.11, -0.12, 1.66, -488.07, 440.64)" xlink:href="#Безымянный_градиент_71"/></defs><g id="Слой_3" data-name="Слой 3"><rect class="cls-1" x="0.5" y="0.5" width="1919" height="399"/><path d="M1919,1V399H1V1H1919m1-1H0V400H1920V0Z"/></g><g id="Слой_1" data-name="Слой 1"><path class="cls-2" d="M348.48,87,310.29,238.86,266,239l-14.21-90.43c-1.24-4.72-2.65-15.81-2.65-15.81a96.52,96.52,0,0,1-2.55,15.81l-24,90.29L179,239,139,87h42l21,106c.85,4,3,8.21,3.37,14.94H206a78.29,78.29,0,0,1,2.84-16.49L225.32,87H268l23.34,105.63a115.14,115.14,0,0,1,2.26,15.12H294A101.47,101.47,0,0,1,296.05,192L305,87Z"/><path class="cls-2" d="M489.1,238.86,448,239l-10-31-43.51-.45-9.91,31.31L336,239,393,87h45.05Zm-51.82-55.65L422.17,135.9a61.83,61.83,0,0,1-2.36-12.66H419a54.15,54.15,0,0,1-2.45,12.27l-15.31,47.7Z"/><path class="cls-2" d="M624.74,238.86,584,239l-19-34c-1.64-2.75-1.76-7.56-3.27-9.72a41.12,41.12,0,0,0-4.56-5.54,18.19,18.19,0,0,0-4.81-3.54,12.3,12.3,0,0,0-5.45-1.22h-8.54v53.88L496,239l1.67-152h50.25c50.57,3.27,61.93,22.09,60.23,49.4-.3,4.89-.75,9.43-2.25,13.59a37.94,37.94,0,0,1-6.38,11.24,40.62,40.62,0,0,1-10,8.63,51.73,51.73,0,0,1-13,5.7V176a20.16,20.16,0,0,1,6.09,3.19,43.64,43.64,0,0,1,5.69,5.15,71.69,71.69,0,0,1,5.25,6.33q2.5,3.39,4.56,6.63Zm-86.37-117V161h13.74q10.21,0,16.39-5.89a19.65,19.65,0,0,0,6.29-14.82q0-18.45-22.09-18.45Z"/><path class="cls-2" d="M731,87l-.18,35.66-9.82-1V204l10-1-.18,35.86L672,239V214l15.34.32V122.66L695,103,672,87Z"/><path class="cls-2" d="M883.65,238.86,848,239l-54.35-88.57a126.41,126.41,0,0,1-7.07-11.68h-.39q.78,7.45.78,22.77v77.34L746,239l2-152h40s66.84,101.21,69,105A38.22,38.22,0,0,1,853.71,176L844,87h40Z"/><path class="cls-2" d="M1086,177.91q0,63.41-59.08,63.4c-38.22,0-62.94-20-62.94-61.31l-4-93h41l.42,92.78q0,34.14,26.7,34.15,26.19,0,26.2-33L1053,87h33Z"/><path class="cls-2" d="M1233.63,238.86,1190,239l-37.44-61.29c-.78-1.17-4.22-7.75-4.22-7.75v68.9L1107,239V87h41l.34,77.66h.49c.79-1.83,2.09-4.45,3.93-7.85L1184,87h49l-52.66,78.25Z"/><path class="cls-2" d="M1365.14,238.86,1323,239l-16.16-36.36q-2.44-4.11-4.71-7.36a40.38,40.38,0,0,0-4.56-5.54,18.19,18.19,0,0,0-4.81-3.54,12.3,12.3,0,0,0-5.45-1.22h-8.53v53.88L1236,239l2-152h62c34.15,0,48.56,23.88,48.56,49.4A39.79,39.79,0,0,1,1346.3,150a37.94,37.94,0,0,1-6.38,11.24,40.62,40.62,0,0,1-10,8.63,51.73,51.73,0,0,1-13,5.7V176a20,20,0,0,1,6.09,3.19,43.64,43.64,0,0,1,5.69,5.15,71.69,71.69,0,0,1,5.25,6.33q2.51,3.39,4.57,6.63Zm-86.36-117V161h13.74q10.2,0,16.39-5.89a19.67,19.67,0,0,0,6.28-14.82q0-18.45-22.09-18.45Z"/><path class="cls-2" d="M1502.05,238.86,1459,241l-7-33-44.56-.45-9.91,31.31L1348,241l56-154h48Zm-51.82-55.65-15.11-47.31a61.21,61.21,0,0,1-2.35-12.66H1432a54.15,54.15,0,0,1-2.45,12.27l-15.31,47.7Z"/><path class="cls-2" d="M1563,87l.1,35.66h-11.78L1551,204h12l.1,34.86L1499,239l-1-36,21.62,11.32V122.66L1520,109l-22-22Z"/><path class="cls-2" d="M1709.92,238.86,1675,239l-55.07-88.57a126.41,126.41,0,0,1-7.07-11.68h-.39q.78,7.45.78,22.77v77.34L1573,239l2-152h43l62,93c2.55,3.86-1.78,11.49.38,15.28h.4q-.79-4.91-.79-19.33L1670,87h40Z"/><path class="cls-2" d="M1826.52,238.86,1732,239V87h91l.28,36.93h-49.46L1774,145l46-1-.15,36.95h-46L1774,202h53Z"/><text class="cls-3" transform="translate(137.27 227.86)">WAR IN UKRAINE</text></g><g id="Слой_2" data-name="Слой 2"><path class="cls-4" d="M170,284c-7,27-20,45-14,63,5.83,17.49,30.92,12.57,35,4C201,330,170,284,170,284Z"/><path class="cls-5" d="M908,258c-7,27-20,45-14,63,5.83,17.49,30.92,12.57,35,4C939,304,908,258,908,258Z"/><path class="cls-6" d="M1832,311c-7,27-20,45-14,63,5.83,17.49,30.92,12.57,35,4C1863,357,1832,311,1832,311Z"/><path class="cls-7" d="M1275,275c-7,27-20,45-14,63,5.83,17.49,30.92,12.57,35,4C1306,321,1275,275,1275,275Z"/><path class="cls-8" d="M1447.88,297.4c-4.9,18.91-14,31.52-9.8,44.13,4.08,12.25,21.66,8.8,24.52,2.8C1469.6,329.62,1447.88,297.4,1447.88,297.4Z"/><path class="cls-9" d="M1541.88,338.4c-4.9,18.91-14,31.52-9.8,44.13,4.08,12.25,21.66,8.8,24.52,2.8C1563.6,370.62,1541.88,338.4,1541.88,338.4Z"/><path class="cls-10" d="M996.08,230c-5.15,19.86-14.71,33.1-10.3,46.34,4.29,12.87,22.75,9.24,25.75,2.94C1018.88,263.83,996.08,230,996.08,230Z"/><path class="cls-11" d="M1769.22,283.38c-1.45,8.35-4.14,13.91-2.9,19.47,1.21,5.41,6.41,3.89,7.25,1.24C1775.65,297.6,1769.22,283.38,1769.22,283.38Z"/><path class="cls-12" d="M1085.22,347.38c-1.45,8.35-4.14,13.91-2.9,19.47,1.21,5.41,6.41,3.89,7.25,1.24C1091.65,361.6,1085.22,347.38,1085.22,347.38Z"/><path class="cls-13" d="M1765.22,357.38c-1.45,8.35-4.14,13.91-2.9,19.47,1.21,5.41,6.41,3.89,7.25,1.24C1771.65,371.6,1765.22,357.38,1765.22,357.38Z"/><path class="cls-14" d="M1219.22,292.38c-1.45,8.35-4.14,13.91-2.9,19.47,1.21,5.41,6.41,3.89,7.25,1.24C1225.65,306.6,1219.22,292.38,1219.22,292.38Z"/><path class="cls-15" d="M372.22,337.38c-1.45,8.35-4.14,13.91-2.9,19.47,1.21,5.41,6.41,3.89,7.25,1.24C378.65,351.6,372.22,337.38,372.22,337.38Z"/><path class="cls-16" d="M243.22,364.38c-1.45,8.35-4.14,13.91-2.9,19.47,1.21,5.41,6.41,3.89,7.25,1.24C249.65,378.6,243.22,364.38,243.22,364.38Z"/><path class="cls-17" d="M710.22,283.38c-1.45,8.35-4.14,13.91-2.9,19.47,1.21,5.41,6.41,3.89,7.25,1.24C716.65,297.6,710.22,283.38,710.22,283.38Z"/><path class="cls-18" d="M755.22,353.38c-1.45,8.35-4.14,13.91-2.9,19.47,1.21,5.41,6.41,3.89,7.25,1.24C761.65,367.6,755.22,353.38,755.22,353.38Z"/><path class="cls-19" d="M624.22,347.38c-1.45,8.35-4.14,13.91-2.9,19.47,1.21,5.41,6.41,3.89,7.25,1.24C630.65,361.6,624.22,347.38,624.22,347.38Z"/><path class="cls-20" d="M1816.22,263.38c-1.45,8.35-4.14,13.91-2.9,19.47,1.21,5.41,6.41,3.89,7.25,1.24C1822.65,277.6,1816.22,263.38,1816.22,263.38Z"/><path class="cls-21" d="M837.88,323.4c-4.9,18.91-14,31.52-9.8,44.13,4.08,12.25,21.66,8.8,24.52,2.8C859.6,355.62,837.88,323.4,837.88,323.4Z"/><path class="cls-22" d="M136.88,231.4c-4.9,18.91-14,31.52-9.8,44.13,4.08,12.25,21.66,8.8,24.52,2.8C158.6,263.62,136.88,231.4,136.88,231.4Z"/><path class="cls-23" d="M1707.88,323.4c-4.9,18.91-14,31.52-9.8,44.13,4.08,12.25,21.66,8.8,24.52,2.8C1729.6,355.62,1707.88,323.4,1707.88,323.4Z"/><path class="cls-24" d="M685.88,312.4c-4.9,18.91-14,31.52-9.8,44.13,4.08,12.25,21.66,8.8,24.52,2.8C707.6,344.62,685.88,312.4,685.88,312.4Z"/><path class="cls-25" d="M315.88,338.4c-4.9,18.91-14,31.52-9.8,44.13,4.08,12.25,21.66,8.8,24.52,2.8C337.6,370.62,315.88,338.4,315.88,338.4Z"/><path class="cls-26" d="M576.88,291.4c-4.9,18.91-14,31.52-9.8,44.13,4.08,12.25,21.66,8.8,24.52,2.8C598.6,323.62,576.88,291.4,576.88,291.4Z"/><path class="cls-27" d="M1230.88,332.4c-4.9,18.91-14,31.52-9.8,44.13,4.08,12.25,21.66,8.8,24.52,2.8C1252.6,364.62,1230.88,332.4,1230.88,332.4Z"/><path class="cls-28" d="M416.88,301.4c-4.9,18.91-14,31.52-9.8,44.13,4.08,12.25,21.66,8.8,24.52,2.8C438.6,333.62,416.88,301.4,416.88,301.4Z"/><path class="cls-29" d="M471.88,280.4c-4.9,18.91-14,31.52-9.8,44.13,4.08,12.25,21.66,8.8,24.52,2.8C493.6,312.62,471.88,280.4,471.88,280.4Z"/><path class="cls-30" d="M496.88,342.4c-4.9,18.91-14,31.52-9.8,44.13,4.08,12.25,21.66,8.8,24.52,2.8C518.6,374.62,496.88,342.4,496.88,342.4Z"/><path class="cls-31" d="M273.88,282.4c-4.9,18.91-14,31.52-9.8,44.13,4.08,12.25,21.66,8.8,24.52,2.8C295.6,314.62,273.88,282.4,273.88,282.4Z"/><path class="cls-32" d="M320.18,226.53c-3.38,16.29-10.59,27.4-6.49,38,4,10.25,18.79,6.58,21,1.35C340,253,320.18,226.53,320.18,226.53Z"/><path class="cls-33" d="M364.64,256.64c-2.54,9.8-7.25,16.33-5.08,22.86,2.12,6.35,11.23,4.56,12.71,1.45C375.9,273.33,364.64,256.64,364.64,256.64Z"/><path class="cls-34" d="M633.64,290.64c-2.54,9.8-7.25,16.33-5.08,22.86,2.12,6.35,11.23,4.56,12.71,1.45C644.9,307.33,633.64,290.64,633.64,290.64Z"/><path class="cls-35" d="M1013.22,327c-3,11.47-8.5,19.12-6,26.77,2.48,7.43,13.14,5.34,14.87,1.7C1026.39,346.55,1013.22,327,1013.22,327Z"/><path class="cls-36" d="M124.22,353c-3,11.47-8.5,19.12-6,26.77,2.48,7.43,13.14,5.34,14.87,1.7C137.39,372.55,124.22,353,124.22,353Z"/><path class="cls-37" d="M1169.22,148c-3,11.47-8.5,19.12-6,26.77,2.48,7.43,13.14,5.34,14.87,1.7C1182.39,167.55,1169.22,148,1169.22,148Z"/><path class="cls-38" d="M1145.22,317c-3,11.47-8.5,19.12-6,26.77,2.48,7.43,13.14,5.34,14.87,1.7C1158.39,336.55,1145.22,317,1145.22,317Z"/><path class="cls-39" d="M1618.22,337c-3,11.47-8.5,19.12-6,26.77,2.48,7.43,13.14,5.34,14.87,1.7C1631.39,356.55,1618.22,337,1618.22,337Z"/><path class="cls-40" d="M1340.22,343c-3,11.47-8.5,19.12-6,26.77,2.48,7.43,13.14,5.34,14.87,1.7C1353.39,362.55,1340.22,343,1340.22,343Z"/><path class="cls-41" d="M1695.22,278c-3,11.47-8.5,19.12-6,26.77,2.48,7.43,13.14,5.34,14.87,1.7C1708.39,297.55,1695.22,278,1695.22,278Z"/><path class="cls-42" d="M1529.22,262c-3,11.47-8.5,19.12-6,26.77,2.48,7.43,13.14,5.34,14.87,1.7C1542.39,281.55,1529.22,262,1529.22,262Z"/><path class="cls-43" d="M1125.22,104c-3,11.47-8.5,19.12-6,26.77,2.48,7.43,13.14,5.34,14.87,1.7C1138.39,123.55,1125.22,104,1125.22,104Z"/><path class="cls-44" d="M766.88,286.4c-4.9,18.91-14,31.52-9.8,44.13,4.08,12.25,21.66,8.8,24.52,2.8C788.6,318.62,766.88,286.4,766.88,286.4Z"/><path class="cls-45" d="M709.66,181.92c-3.45,13.31-9.86,22.18-6.9,31.05,2.87,8.62,15.24,6.19,17.25,2C724.94,204.59,709.66,181.92,709.66,181.92Z"/><path class="cls-46" d="M833.66,266.92c-3.45,13.31-9.86,22.18-6.9,31.05,2.87,8.62,15.24,6.19,17.25,2C848.94,289.59,833.66,266.92,833.66,266.92Z"/><path class="cls-47" d="M919.66,345.92c-3.45,13.31-9.86,22.18-6.9,31.05,2.87,8.62,15.24,6.19,17.25,2C934.94,368.59,919.66,345.92,919.66,345.92Z"/><path class="cls-48" d="M241.66,251.92c-3.45,13.31-9.86,22.18-6.9,31.05,2.87,8.62,15.24,6.19,17.25,2C256.94,274.59,241.66,251.92,241.66,251.92Z"/><path class="cls-49" d="M1084.66,290.92c-3.45,13.31-9.86,22.18-6.9,31.05,2.87,8.62,15.24,6.19,17.25,2C1099.94,313.59,1084.66,290.92,1084.66,290.92Z"/><path class="cls-50" d="M582.66,106.92c-3.45,13.31-9.86,22.18-6.9,31.05,2.87,8.62,15.24,6.19,17.25,2C597.94,129.59,582.66,106.92,582.66,106.92Z"/><path class="cls-51" d="M535,211.09c-1.22,4.69-1.86,38.59-3.33,42.57-2,5.51-4.83,10-6,14.64-1.2,4.84-.84,6.12.66,10.64,3.88,11.64,20.57,8.36,23.29,2.66,2-4.17,1.54-9.82-.07-15.7-1-3.61-7-16.74-8.58-20.22C536.61,235.82,535,211.09,535,211.09Z"/><path class="cls-52" d="M443,120.09c-1.22,4.69-1.86,38.59-3.33,42.57-2,5.51-4.83,10-6,14.64-1.2,4.84-.84,6.12.66,10.64,3.88,11.64,20.57,8.36,23.29,2.66,2-4.17,1.54-9.82-.07-15.7-1-3.61-7-16.74-8.58-20.22C444.61,144.82,443,120.09,443,120.09Z"/><path class="cls-53" d="M1242,121.09c-1.22,4.69-1.86,38.59-3.33,42.57-2,5.51-4.83,10-6,14.64-1.2,4.84-.84,6.12.66,10.64,3.88,11.64,20.57,8.36,23.29,2.66,2-4.17,1.54-9.82-.07-15.7-1-3.61-7-16.74-8.58-20.22C1243.61,145.82,1242,121.09,1242,121.09Z"/><path class="cls-54" d="M1384.31,198.63c-1.26,2.92-5.12,24.84-6.47,27.27-1.87,3.37-4.15,6-5.37,8.88s-1.17,3.89-.65,7c1.34,7.94,12.49,7.51,14.83,4.09,1.71-2.5,2-6.22,1.55-10.19-.27-2.44-2.86-11.56-3.51-14C1382.83,214.83,1384.31,198.63,1384.31,198.63Z"/><path class="cls-55" d="M205.31,154.63c-1.26,2.92-5.12,24.84-6.47,27.27-1.87,3.37-4.15,6-5.37,8.88s-1.17,3.89-.65,7c1.34,7.94,12.49,7.51,14.83,4.09,1.71-2.5,2-6.22,1.55-10.19-.27-2.44-2.86-11.56-3.51-14C203.83,170.83,205.31,154.63,205.31,154.63Z"/><path class="cls-56" d="M1604,190.09c-1.22,4.69-1.86,38.59-3.33,42.57-2,5.51-4.83,10-6,14.64-1.2,4.84-.84,6.12.66,10.64,3.88,11.64,20.57,8.36,23.29,2.66,2-4.17,1.54-9.82-.07-15.7-1-3.61-7-16.74-8.58-20.22C1605.61,214.82,1604,190.09,1604,190.09Z"/><path class="cls-57" d="M1681,87.09c-1.22,4.69-1.86,38.59-3.33,42.57-2,5.51-4.83,10-6,14.64-1.2,4.84-.84,6.12.66,10.64,3.88,11.64,20.57,8.36,23.29,2.66,2-4.17,1.54-9.82-.07-15.7-1-3.61-7-16.74-8.58-20.22C1682.61,111.82,1681,87.09,1681,87.09Z"/><path class="cls-58" d="M608.09,213.65c-.34,3.37,12.3,21.59,11.73,24.48-.78,4-2.16,7.35-2.47,10.66-.32,3.47,0,4.33,1.39,7.34,3.52,7.77,13.82,4.1,15-.08.88-3.07.08-7-1.47-10.91-.95-2.42-4.74-12.28-6-14.57C622.56,224.08,608.09,213.65,608.09,213.65Z"/><path class="cls-59" d="M422,87c6,2,18.39,8.24,17.82,11.13-.78,4-2.16,7.35-2.47,10.66-.32,3.47,0,4.33,1.39,7.34,3.52,7.77,13.82,4.1,15-.08.88-3.07.08-7-1.47-10.91-.95-2.42-6-12.85-7.3-15.14C441.3,83.51,422,87,422,87Z"/><path class="cls-60" d="M1404.56,87.24c1.35,3.1,21.32,12.75,22.24,15.55,1.28,3.86,1.73,7.46,3.09,10.5s2.15,3.75,4.82,5.71c6.88,5,14-3.23,13-7.46-.74-3.1-3.34-6.1-6.64-8.78-2-1.64-8.95-10.26-11.11-11.76C1421.31,85,1404.56,87.24,1404.56,87.24Z"/><path class="cls-61" d="M1211,87c4,2,20.14,1.28,19,4-1.57,3.76-5,21.51-6,24.7s-.85,4.24-.11,7.47c1.89,8.31,12.71,6.79,14.73,2.93,1.48-2.82,1.48-6.8.75-11-.44-2.56-4.54-23.61-5.36-26.12C1231.68,81.9,1211,87,1211,87Z"/><path class="cls-62" d="M1752.84,87c-4,2-20.14,1.28-19,4,1.57,3.76,5,21.51,6,24.7s.84,4.24.11,7.47c-1.89,8.31-12.71,6.79-14.73,2.93-1.48-2.82-1.48-6.8-.75-11,.44-2.56,4.54-23.61,5.36-26.12C1732.16,81.9,1752.84,87,1752.84,87Z"/><path class="cls-63" d="M1807.15,202.45c4.18,1.61,20.17-.65,19.3,2.16-1.21,3.89-3,21.9-3.62,25.17s-.43,4.3.6,7.44c2.68,8.09,13.31,5.54,15,1.51,1.2-2.95.82-6.91-.3-11-.69-2.51-6.79-23.07-7.84-25.49C1827.25,195.4,1807.15,202.45,1807.15,202.45Z"/><path class="cls-64" d="M1234,89c-2.32-7.1-23-2-23-2-4,2,20.14,1.28,19,4"/><path class="cls-65" d="M595.1,100.65c-.35,3.36,12.29,21.59,11.72,24.48-.78,4-2.16,7.35-2.47,10.66-.32,3.46,0,4.33,1.39,7.34,3.52,7.77,13.82,4.1,15-.08.88-3.06.09-7-1.46-10.91-.95-2.42-4.74-12.28-6-14.57C609.56,111.08,595.1,100.65,595.1,100.65Z"/><path class="cls-66" d="M340.71,90.57c-.93,3.61-1.43,29.68-2.55,32.74-1.56,4.24-3.72,7.69-4.61,11.25-.92,3.73-.64,4.72.51,8.19,3,8.95,15.82,6.43,17.91,2.05,1.53-3.21,1.19-7.56-.05-12.08-.75-2.77-5.4-12.87-6.6-15.55C341.93,109.58,340.71,90.57,340.71,90.57Z"/><path class="cls-67" d="M1471.71,160.57c-.93,3.61-1.43,29.68-2.55,32.74-1.56,4.24-3.72,7.69-4.61,11.25-.92,3.73-.64,4.72.51,8.19,3,8.95,15.82,6.43,17.91,2.05,1.53-3.21,1.19-7.56,0-12.08-.75-2.77-5.4-12.87-6.6-15.55C1472.93,179.58,1471.71,160.57,1471.71,160.57Z"/><path class="cls-68" d="M1753.71,112.57c-.93,3.61-1.43,29.68-2.55,32.74-1.56,4.24-3.72,7.69-4.61,11.25-.92,3.73-.64,4.72.51,8.19,3,8.95,15.82,6.43,17.91,2.05,1.53-3.21,1.19-7.56,0-12.08-.75-2.77-5.4-12.87-6.6-15.55C1754.93,131.58,1753.71,112.57,1753.71,112.57Z"/><path class="cls-69" d="M1078.71,209.57c-.93,3.61-1.43,29.68-2.55,32.74-1.56,4.24-3.72,7.69-4.61,11.25-.92,3.73-.64,4.72.51,8.19,3,8.95,15.82,6.43,17.91,2.05,1.53-3.21,1.19-7.56,0-12.08-.75-2.77-5.4-12.87-6.6-15.55C1079.93,228.58,1078.71,209.57,1078.71,209.57Z"/><path class="cls-70" d="M1339.71,129.57c-.93,3.61-1.43,29.68-2.55,32.74-1.56,4.24-3.72,7.69-4.61,11.25-.92,3.73-.64,4.72.51,8.19,3,8.95,15.82,6.43,17.91,2.05,1.53-3.21,1.19-7.56,0-12.08-.75-2.77-5.4-12.87-6.6-15.55C1340.93,148.58,1339.71,129.57,1339.71,129.57Z"/><path class="cls-71" d="M1046.66,84.48c.89,4.62,1.36,38,2.43,41.92,1.48,5.42,3.53,9.84,4.37,14.41.88,4.76.62,6-.48,10.48-2.84,11.46-15,8.23-17,2.62-1.46-4.11-1.13-9.68,0-15.47.72-3.55,5.14-16.47,6.27-19.9C1045.51,108.82,1046.66,84.48,1046.66,84.48Z"/><path class="cls-72" d="M882.51,86.86c-.5,5-1.06,14.42-3,21.73-1.92,7.15.41,14.79-3.54,23.26-5.29,11.36-4.49,21.14-2,25.27,4.8,8,15.17,6.57,19.21,1,2.71-3.73,2.63-14.87,1.18-27-1-8.58-6.88-12.6-8.76-20C883.29,102.31,882.7,85,882.51,86.86Z"/><path class="cls-73" d="M689.5,93.73c.37,3.76.79,10.71,2.25,16.14s-.3,11,2.63,17.27c3.93,8.43,3.34,15.7,1.5,18.77-3.56,5.93-11.26,4.88-14.26.75-2-2.77-2-11-.88-20.09.76-6.37,5.11-9.35,6.51-14.82C688.92,105.21,689.36,92.32,689.5,93.73Z"/><path class="cls-74" d="M150.34,86c.53,5.27,1.11,15,3.16,22.67,2,7.45-.42,15.42,3.69,24.25,5.53,11.85,4.7,22,2.11,26.36-5,8.33-15.81,6.85-20,1.05-2.83-3.89-2.74-15.51-1.23-28.21,1.07-8.95,7.17-13.14,9.14-20.81C149.53,102.07,150.14,84,150.34,86Z"/><path class="cls-75" d="M499.94,149.71c.4,4,.85,11.47,2.41,17.29s-.32,11.76,2.82,18.5c4.21,9,3.58,16.83,1.61,20.11-3.82,6.36-12.07,5.23-15.28.8-2.16-3-2.1-11.83-.94-21.51.81-6.84,5.47-10,7-15.89C499.32,162,499.79,148.2,499.94,149.71Z"/><path class="cls-76" d="M756.94,119.71c.4,4,.85,11.47,2.41,17.29s-.32,11.76,2.82,18.5c4.21,9,3.58,16.83,1.61,20.11-3.82,6.36-12.07,5.23-15.28.8-2.16-3-2.1-11.83-.94-21.51.81-6.84,5.47-10,7-15.89C756.32,132,756.79,118.2,756.94,119.71Z"/><path class="cls-77" d="M965.94,90.71c.4,4,.85,11.47,2.41,17.29s-.32,11.76,2.82,18.5c4.21,9,3.58,16.83,1.61,20.11-3.82,6.36-12.07,5.23-15.28.8-2.16-3-2.1-11.83-.94-21.51.81-6.84,5.47-10,7-15.89C965.32,103,965.79,89.2,965.94,90.71Z"/><path class="cls-78" d="M1515.34,85c.53,5.27,1.11,15,3.16,22.67,2,7.45-.42,15.42,3.69,24.25,5.53,11.85,4.7,22,2.11,26.36-5,8.33-15.81,6.85-20,1.05-2.83-3.89-2.74-15.51-1.23-28.21,1.07-8.95,7.17-13.14,9.14-20.81C1514.53,101.07,1515.14,83,1515.34,85Z"/><path class="cls-79" d="M1148.34,199c.53,5.27,1.11,15,3.16,22.67,2,7.45-.42,15.42,3.69,24.25,5.53,11.85,4.7,22.05,2.11,26.36-5,8.33-15.81,6.85-20,1-2.83-3.89-2.74-15.51-1.23-28.21,1.07-8.95,7.17-13.14,9.14-20.81C1147.53,215.07,1148.14,197,1148.34,199Z"/><path class="cls-80" d="M1578,156.24c.3,3.06.64,8.71,1.83,13.13s-.25,8.93,2.14,14c3.19,6.86,2.71,12.77,1.22,15.26-2.9,4.83-9.16,4-11.61.61-1.63-2.25-1.58-9-.71-16.33.62-5.19,4.16-7.61,5.29-12.06C1577.49,165.58,1577.84,155.1,1578,156.24Z"/><path class="cls-81" d="M183,325s7,25-3,29c9,0,10-10,8-16C186.4,333.29,183,325,183,325Z"/><path class="cls-81" d="M129.31,370.33S132.37,381.25,128,383c3.93,0,4.38-4.37,3.5-7C130.8,374,129.31,370.33,129.31,370.33Z"/><path class="cls-81" d="M369,268s3.38,12.07-1.45,14c4.35,0,4.85-4.83,3.86-7.72C370.68,272,369,268,369,268Z"/><path class="cls-81" d="M425,325s5.8,20.69-2.48,24c7.45,0,8.3-8.28,6.62-13.24C427.83,331.86,425,325,425,325Z"/><path class="cls-81" d="M504.65,375.06S508.5,388.8,503,391c4.95,0,5.51-5.5,4.4-8.79C506.52,379.62,504.65,375.06,504.65,375.06Z"/><path class="cls-81" d="M373.49,347.24s2.84,10.14-1.21,11.76c3.65,0,4.07-4.06,3.24-6.49C374.88,350.6,373.49,347.24,373.49,347.24Z"/><path class="cls-81" d="M585.65,324.06S589.5,337.8,584,340c5,0,5.51-5.5,4.4-8.79C587.52,328.62,585.65,324.06,585.65,324.06Z"/><path class="cls-81" d="M322.32,366.53S327.75,385.9,320,389c7,0,7.77-7.75,6.2-12.4C325,373,322.32,366.53,322.32,366.53Z"/><path class="cls-81" d="M479.32,302.53S484.75,321.9,477,325c7,0,7.77-7.75,6.2-12.4C482,309,479.32,302.53,479.32,302.53Z"/><path class="cls-81" d="M544.32,261.53S549.75,280.9,542,284c7,0,7.77-7.75,6.2-12.4C547,268,544.32,261.53,544.32,261.53Z"/><path class="cls-81" d="M502.32,181.53S507.75,200.9,500,204c7,0,7.77-7.75,6.2-12.4C505,188,502.32,181.53,502.32,181.53Z"/><path class="cls-81" d="M587.32,119.53S592.75,138.9,585,142c7,0,7.77-7.75,6.2-12.4C590,126,587.32,119.53,587.32,119.53Z"/><path class="cls-81" d="M628.78,239.78s4.88,17.43-2.09,20.22c6.27,0,7-7,5.58-11.15C631.15,245.56,628.78,239.78,628.78,239.78Z"/><path class="cls-81" d="M692.78,125.78s4.88,17.43-2.09,20.22c6.27,0,7-7,5.58-11.15C695.15,131.56,692.78,125.78,692.78,125.78Z"/><path class="cls-81" d="M773.78,313.78s4.88,17.43-2.09,20.22c6.27,0,7-7,5.58-11.15C776.15,319.56,773.78,313.78,773.78,313.78Z"/><path class="cls-81" d="M633.78,298.78s4.88,17.43-2.09,20.22c6.27,0,7-7,5.58-11.15C636.15,304.56,633.78,298.78,633.78,298.78Z"/><path class="cls-81" d="M695.78,339.78s4.88,17.43-2.09,20.22c6.27,0,7-7,5.58-11.15C698.15,345.56,695.78,339.78,695.78,339.78Z"/><path class="cls-81" d="M844.78,348.78s4.88,17.43-2.09,20.22c6.27,0,7-7,5.58-11.15C847.15,354.56,844.78,348.78,844.78,348.78Z"/><path class="cls-81" d="M920.78,304.78s4.88,17.43-2.09,20.22c6.27,0,7-7,5.58-11.15C923.15,310.56,920.78,304.78,920.78,304.78Z"/><path class="cls-81" d="M1005.78,257.78s4.88,17.43-2.09,20.22c6.27,0,7-7,5.58-11.15C1008.15,263.56,1005.78,257.78,1005.78,257.78Z"/><path class="cls-81" d="M1090.57,309.69s3.94,14.06-1.69,16.31c5.07,0,5.65-5.63,4.5-9C1092.49,314.35,1090.57,309.69,1090.57,309.69Z"/><path class="cls-82" d="M1363.66,278.92c-3.45,13.31-9.86,22.18-6.9,31.05,2.87,8.62,15.24,6.19,17.25,2C1378.94,301.59,1363.66,278.92,1363.66,278.92Z"/><path class="cls-81" d="M1369.57,297.69s3.94,14.06-1.69,16.31c5.07,0,5.65-5.63,4.5-9C1371.49,302.35,1369.57,297.69,1369.57,297.69Z"/><path class="cls-83" d="M1584.66,292.92c-3.45,13.31-9.86,22.18-6.9,31.05,2.87,8.62,15.24,6.19,17.25,2C1599.94,315.59,1584.66,292.92,1584.66,292.92Z"/><path class="cls-81" d="M1590.57,311.69s3.94,14.06-1.69,16.31c5.07,0,5.65-5.63,4.5-9C1592.49,316.35,1590.57,311.69,1590.57,311.69Z"/><path class="cls-84" d="M1407.66,347.92c-3.45,13.31-9.86,22.18-6.9,31.05,2.87,8.62,15.24,6.19,17.25,2C1422.94,370.59,1407.66,347.92,1407.66,347.92Z"/><path class="cls-81" d="M1413.57,366.69s3.94,14.06-1.69,16.31c5.07,0,5.65-5.63,4.5-9C1415.49,371.35,1413.57,366.69,1413.57,366.69Z"/><path class="cls-85" d="M1436.66,221.92c-3.45,13.31-9.86,22.18-6.9,31.05,2.87,8.62,15.24,6.19,17.25,2C1451.94,244.59,1436.66,221.92,1436.66,221.92Z"/><path class="cls-81" d="M1442.57,240.69s3.94,14.06-1.69,16.31c5.07,0,5.65-5.63,4.5-9C1444.49,245.35,1442.57,240.69,1442.57,240.69Z"/><path class="cls-86" d="M1639.66,190.92c-3.45,13.31-9.86,22.18-6.9,31.05,2.87,8.62,15.24,6.19,17.25,2C1654.94,213.59,1639.66,190.92,1639.66,190.92Z"/><path class="cls-81" d="M1645.57,209.69s3.94,14.06-1.69,16.31c5.07,0,5.65-5.63,4.5-9C1647.49,214.35,1645.57,209.69,1645.57,209.69Z"/><path class="cls-87" d="M1721.66,221.92c-3.45,13.31-9.86,22.18-6.9,31.05,2.87,8.62,15.24,6.19,17.25,2C1736.94,244.59,1721.66,221.92,1721.66,221.92Z"/><path class="cls-81" d="M1727.57,240.69s3.94,14.06-1.69,16.31c5.07,0,5.65-5.63,4.5-9C1729.49,245.35,1727.57,240.69,1727.57,240.69Z"/><path class="cls-88" d="M982.66,175.92c-3.45,13.31-9.86,22.18-6.9,31.05,2.87,8.62,15.24,6.19,17.25,2C997.94,198.59,982.66,175.92,982.66,175.92Z"/><path class="cls-81" d="M988.57,194.69s3.94,14.06-1.69,16.31c5.07,0,5.65-5.63,4.5-9C990.49,199.35,988.57,194.69,988.57,194.69Z"/><path class="cls-89" d="M817.66,137.92c-3.45,13.31-9.86,22.18-6.9,31.05,2.87,8.62,15.24,6.19,17.25,2C832.94,160.59,817.66,137.92,817.66,137.92Z"/><path class="cls-81" d="M823.57,156.69s3.94,14.06-1.69,16.31c5.07,0,5.65-5.63,4.5-9C825.49,161.35,823.57,156.69,823.57,156.69Z"/><path class="cls-90" d="M178.66,87.92c-3.45,13.31-9.86,22.18-6.9,31.05,2.87,8.62,15.24,6.19,17.25,2C193.94,110.59,178.66,87.92,178.66,87.92Z"/><path class="cls-81" d="M184.57,106.69s3.94,14.06-1.69,16.31c5.07,0,5.65-5.63,4.5-9C186.49,111.35,184.57,106.69,184.57,106.69Z"/><path class="cls-81" d="M1150,332s3.38,12.07-1.45,14c4.35,0,4.85-4.83,3.86-7.72C1151.68,336,1150,332,1150,332Z"/><path class="cls-81" d="M1174,163s3.38,12.07-1.45,14c4.35,0,4.85-4.83,3.86-7.72C1175.68,167,1174,163,1174,163Z"/><path class="cls-81" d="M1130.57,117.69s3.94,14.06-1.69,16.31c5.07,0,5.65-5.63,4.5-9C1132.49,122.35,1130.57,117.69,1130.57,117.69Z"/><path class="cls-81" d="M1235.57,109.69s3.94,14.06-1.69,16.31c5.07,0,5.65-5.63,4.5-9C1237.49,114.35,1235.57,109.69,1235.57,109.69Z"/><path class="cls-91" d="M249,86c4,2,20.14,1.28,19,4-1.57,3.76-5,21.51-6,24.7s-.85,4.24-.11,7.47c1.89,8.31,12.71,6.79,14.73,2.93,1.48-2.82,1.48-6.8.75-11-.44-2.56-4.54-23.61-5.36-26.12C269.68,80.9,249,86,249,86Z"/><path class="cls-81" d="M273.57,108.69s3.94,14.06-1.69,16.31c5.07,0,5.65-5.63,4.5-9C275.49,113.35,273.57,108.69,273.57,108.69Z"/><path class="cls-81" d="M1225,86c1.62-1.11,11,5,10,12,.32-4.76-1.28-6.15-2-9S1225,86,1225,86Z"/><path class="cls-81" d="M610,115s11.31,27.09,6,30c7,0,2.54-10.79,1-14C615.79,128.48,610,115,610,115Z"/><path class="cls-81" d="M1018.12,339.77s3.63,13.78.62,16.33c2.91-.28,2.7-5.91,1.71-9.21C1019.68,344.3,1018.12,339.77,1018.12,339.77Z"/><path class="cls-81" d="M925.23,362.75s3.45,13.83.4,16.34c2.91-.24,2.77-5.88,1.83-9.18C926.72,367.31,925.23,362.75,925.23,362.75Z"/><path class="cls-81" d="M1286.78,321.78s4.88,17.43-2.09,20.22c6.27,0,7-7,5.58-11.15C1289.15,327.56,1286.78,321.78,1286.78,321.78Z"/><path class="cls-81" d="M1548.78,365.78s4.88,17.43-2.09,20.22c6.27,0,7-7,5.58-11.15C1551.15,371.56,1548.78,365.78,1548.78,365.78Z"/><path class="cls-81" d="M1620.93,356.37s2.32,8.3-1,9.63c3,0,3.33-3.32,2.66-5.31C1622.06,359.12,1620.93,356.37,1620.93,356.37Z"/><path class="cls-81" d="M1697.93,295.37s2.32,8.3-1,9.63c3,0,3.33-3.32,2.66-5.31C1699.06,298.12,1697.93,295.37,1697.93,295.37Z"/><path class="cls-81" d="M1533.93,280.37s2.32,8.3-1,9.63c3,0,3.33-3.32,2.66-5.31C1535.06,283.12,1533.93,280.37,1533.93,280.37Z"/><path class="cls-81" d="M1715.78,350.78s4.88,17.43-2.09,20.22c6.27,0,7-7,5.58-11.15C1718.15,356.56,1715.78,350.78,1715.78,350.78Z"/><path class="cls-81" d="M1832,220.11s7.83,16.32,1.45,20.27c6.18-1.09,5.68-8.08,3.56-11.95C1835.38,225.39,1832,220.11,1832,220.11Z"/><path class="cls-81" d="M1756,146.11s7.83,16.32,1.45,20.27c6.18-1.09,5.68-8.08,3.56-11.95C1759.38,151.39,1756,146.11,1756,146.11Z"/><path class="cls-81" d="M1732.54,108.38s7.31,15.24,1.35,18.93c5.77-1,5.31-7.54,3.32-11.16C1735.66,113.31,1732.54,108.38,1732.54,108.38Z"/><path class="cls-81" d="M1842.39,347s7.73,27.59-3.31,32c9.93,0,11.07-11,8.83-17.66C1846.15,356.15,1842.39,347,1842.39,347Z"/><path class="cls-81" d="M1613.78,239.78s4.88,17.43-2.09,20.22c6.27,0,7-7,5.58-11.15C1616.15,245.56,1613.78,239.78,1613.78,239.78Z"/><path class="cls-81" d="M1690.78,135.78s4.88,17.43-2.09,20.22c6.27,0,7-7,5.58-11.15C1693.15,141.56,1690.78,135.78,1690.78,135.78Z"/><path class="cls-81" d="M1455.78,326.78s4.88,17.43-2.09,20.22c6.27,0,7-7,5.58-11.15C1458.15,332.56,1455.78,326.78,1455.78,326.78Z"/><path class="cls-81" d="M1474.81,194.18s8.22,16.12,1.94,20.23c6.15-1.24,5.47-8.21,3.26-12C1478.27,199.38,1474.81,194.18,1474.81,194.18Z"/><path class="cls-81" d="M1238.78,360.78s4.88,17.43-2.09,20.22c6.27,0,7-7,5.58-11.15C1241.15,366.56,1238.78,360.78,1238.78,360.78Z"/><path class="cls-81" d="M1346.78,165.78s4.88,17.43-2.09,20.22c6.27,0,7-7,5.58-11.15C1349.15,171.56,1346.78,165.78,1346.78,165.78Z"/><path class="cls-81" d="M1430.54,95.19S1447.1,111.49,1442,117c5.67-2.69,4.07-6.83,1-10C1440.59,104.51,1430.54,95.19,1430.54,95.19Z"/><path class="cls-81" d="M887,122s6.84,29.9,0,33c6.27-.28,5.6-11.89,4-16C889.74,135.77,887,122,887,122Z"/><path class="cls-81" d="M966,115s6.84,29.9,0,33c6.27-.28,5.6-11.89,4-16C968.74,128.77,966,115,966,115Z"/><path class="cls-81" d="M1080.36,233.29s9.81,29.06,3.32,32.83c6.21-.91,4.38-12.39,2.37-16.32C1084.47,246.71,1080.36,233.29,1080.36,233.29Z"/><path class="cls-81" d="M1046.11,121s6.64,29.94-.22,33c6.27-.24,5.68-11.85,4.11-16C1048.76,134.77,1046.11,121,1046.11,121Z"/><path class="cls-81" d="M1149.28,239.3s10,29,3.48,32.82c6.21-.94,4.32-12.41,2.29-16.33C1153.46,252.71,1149.28,239.3,1149.28,239.3Z"/><path class="cls-81" d="M1381.06,219.69s8,23.22,2.79,26.26c5-.75,3.46-9.93,1.83-13.07C1384.41,230.41,1381.06,219.69,1381.06,219.69Z"/><path class="cls-81" d="M1245,156s12.49,33.19,6,37c6,4,5-16.08,3-20C1252.41,169.92,1245,156,1245,156Z"/><path class="cls-81" d="M1514,118s10.47,39.2,4,43c6-3,7-19.08,5-23C1521.41,134.92,1514,118,1514,118Z"/><path class="cls-81" d="M839,291.6s2.27,8.1-1,9.4c2.92,0,3.25-3.24,2.59-5.19C840.08,294.28,839,291.6,839,291.6Z"/><path class="cls-81" d="M713,295.6s2.27,8.1-1,9.4c2.92,0,3.25-3.24,2.59-5.19C714.08,298.28,713,295.6,713,295.6Z"/><path class="cls-81" d="M713.78,194.78s4.88,17.43-2.09,20.22c6.27,0,7-7,5.58-11.15C716.15,200.56,713.78,194.78,713.78,194.78Z"/><path class="cls-81" d="M758.78,154.78s4.88,17.43-2.09,20.22c6.27,0,7-7,5.58-11.15C761.15,160.56,758.78,154.78,758.78,154.78Z"/><path class="cls-81" d="M142,252s7,25-3,29c9,0,10-10,8-16C145.4,260.29,142,252,142,252Z"/><path class="cls-81" d="M246.32,267.43s4.24,15.15-1.82,17.57c5.45,0,6.08-6.06,4.85-9.69C248.38,272.45,246.32,267.43,246.32,267.43Z"/><path class="cls-81" d="M202.32,187.43s4.24,15.15-1.82,17.57c5.45,0,6.08-6.06,4.85-9.69C204.38,192.45,202.32,187.43,202.32,187.43Z"/><path class="cls-81" d="M279,303s7,25-3,29c9,0,10-10,8-16C282.4,311.29,279,303,279,303Z"/><path class="cls-81" d="M348.24,130.69s3.78,13.47-1.61,15.63c4.85,0,5.4-5.39,4.31-8.62C350.08,135.16,348.24,130.69,348.24,130.69Z"/><path class="cls-81" d="M448,100.92s5.93,12.68,1,15.69c4.79-.8,4.45-6.21,2.84-9.22C450.51,105,448,100.92,448,100.92Z"/><path class="cls-81" d="M328.42,247s5.31,19-2.28,22c6.83,0,7.61-7.59,6.07-12.14C331,253.29,328.42,247,328.42,247Z"/><path class="cls-81" d="M451.32,170.53S456.75,189.9,449,193c7,0,7.77-7.75,6.2-12.4C454,177,451.32,170.53,451.32,170.53Z"/><path class="cls-81" d="M153.59,135.91s6.3,22.49-2.7,26.09c8.1,0,9-9,7.2-14.4C156.65,143.36,153.59,135.91,153.59,135.91Z"/></g><g id="Слой_4" data-name="Слой 4"><rect class="cls-92" x="63.13" y="217.41" width="437.68" height="168.94" transform="translate(-61.53 72.43) rotate(-13.21)"/><text class="cls-93" transform="translate(154.56 400.42) rotate(-13.21)">STOP</text></g></svg>